{"accessors" : [{"bufferView" : 0, "byteOffset" : 0, "componentType" : 5123, "count" : 53760, "type" : "SCALAR", "max" : [53759], "min" : [0]}, {"bufferView" : 1, "byteOffset" : 0, "componentType" : 5126, "count" : 53760, "type" : "VEC3", "max" : [0.9204002618789673, 0.8205614686012268, 0.8433067202568054], "min" : [-0.9204002618789673, -0.7965332269668579, -0.8505721688270569], "name" : "POSITION"}, {"bufferView" : 1, "byteOffset" : 12, "componentType" : 5126, "count" : 53760, "type" : "VEC3", "max" : [1.000002384185791, 0.999968409538269, 0.9999089241027832], "min" : [-1.000002384185791, -1.0000032186508179, -0.9999948740005493], "name" : "NORMAL"}, {"bufferView" : 1, "byteOffset" : 24, "componentType" : 5126, "count" : 53760, "type" : "VEC2", "max" : [0.4813876748085022, 0.9844445586204529], "min" : [0.03443024307489395, 0.4716750383377075], "name" : "TEXCOORD_0"}], "asset" : {"generator" : "Aspose.3D 24.9.1", "version" : "2.0"}, "buffers" : [{"uri" : "data:application/octet-stream;base64,", "byteLength" : 1827848}], "bufferViews" : [{"buffer" : 0, "byteOffset" : 0, "byteLength" : 107520, "target" : 34963}, {"buffer" : 0, "byteOffset" : 107524, "byteLength" : 1720320, "byteStride" : 32, "target" : 34962}], "materials" : [{"name" : "Material", "pbrMetallicRoughness" : {"baseColorFactor" : [0.800000011920929, 0.800000011920929, 0.800000011920929, 1], "metallicFactor" : 1, "roughnessFactor" : 1}, "emissiveFactor" : [0, 0, 0], "alphaMode" : "OPAQUE", "doubleSided" : false}], "meshes" : [{"primitives" : [{"attributes" : {"POSITION" : 1, "NORMAL" : 2, "TEXCOORD_0" : 3}, "indices" : 0, "material" : 0, "mode" : 4}], "name" : ""}], "nodes" : [{"matrix" : [8.2535576723752E-06, 0, -42.38958879716162, 0, -45.78075913500287, -7.458632388710774E-06, -8.913842915861566E-06, 0, -6.9061406127906716E-06, 42.38958879716186, -1.3446752247102977E-12, 0, 0.5500096985143871, 36.04721035849784, 1.0709023225046646E-07, 1], "mesh" : 0, "name" : "APPLE.003"}], "scene" : 0, "scenes" : [{"nodes" : [0]}]}