{"accessors" : [{"bufferView" : 0, "byteOffset" : 0, "componentType" : 5123, "count" : 2880, "type" : "SCALAR", "max" : [2879], "min" : [0]}, {"bufferView" : 1, "byteOffset" : 0, "componentType" : 5126, "count" : 2880, "type" : "VEC3", "max" : [-1.2630553245544434, 40.2967414855957, -1.1644246578216553], "min" : [-4.976751327514648, 32.18033218383789, -4.292102813720703], "name" : "POSITION"}, {"bufferView" : 1, "byteOffset" : 12, "componentType" : 5126, "count" : 2880, "type" : "VEC3", "max" : [0.9999967217445374, 0.9978027939796448, 0.9984242916107178], "min" : [-0.99940425157547, -0.9976924061775208, -0.9984242916107178], "name" : "NORMAL"}, {"bufferView" : 1, "byteOffset" : 24, "componentType" : 5126, "count" : 2880, "type" : "VEC2", "max" : [0, 1], "min" : [0, 1], "name" : "TEXCOORD_0"}, {"bufferView" : 0, "byteOffset" : 5760, "componentType" : 5123, "count" : 28272, "type" : "SCALAR", "max" : [28271], "min" : [0]}, {"bufferView" : 2, "byteOffset" : 0, "componentType" : 5126, "count" : 28272, "type" : "VEC3", "max" : [36.73577880859375, 71.12744140625, -2.4599099159240723], "min" : [-36.735809326171875, -0.017390258610248566, -41.27684020996094], "name" : "POSITION"}, {"bufferView" : 2, "byteOffset" : 12, "componentType" : 5126, "count" : 28272, "type" : "VEC3", "max" : [0.9995872974395752, 0.9999284744262695, 0.9367244243621826], "min" : [-0.9995872974395752, -0.9996824264526367, -1.0000026226043701], "name" : "NORMAL"}, {"bufferView" : 2, "byteOffset" : 24, "componentType" : 5126, "count" : 28272, "type" : "VEC2", "max" : [0.2958584129810333, 0.9210151433944702], "min" : [0.060885440558195114, 0.5103359222412109], "name" : "TEXCOORD_0"}, {"bufferView" : 0, "byteOffset" : 62304, "componentType" : 5123, "count" : 37956, "type" : "SCALAR", "max" : [37955], "min" : [0]}, {"bufferView" : 3, "byteOffset" : 0, "componentType" : 5126, "count" : 37956, "type" : "VEC3", "max" : [36.35071563720703, 69.5626449584961, -1.8550796508789062], "min" : [-36.350746154785156, 1.2104284763336182, -3.4273929595947266], "name" : "POSITION"}, {"bufferView" : 3, "byteOffset" : 12, "componentType" : 5126, "count" : 37956, "type" : "VEC3", "max" : [0.9100528359413147, 0.7271730303764343, 1.0000044107437134], "min" : [-0.9100528359413147, -0.7432013154029846, 0.396263062953949], "name" : "NORMAL"}, {"bufferView" : 3, "byteOffset" : 24, "componentType" : 5126, "count" : 37956, "type" : "VEC2", "max" : [0.9508914947509766, 0.5410016775131226], "min" : [0.6886395215988159, 0.04941248893737793], "name" : "TEXCOORD_0"}, {"bufferView" : 0, "byteOffset" : 138216, "componentType" : 5123, "count" : 2880, "type" : "SCALAR", "max" : [2879], "min" : [0]}, {"bufferView" : 4, "byteOffset" : 0, "componentType" : 5126, "count" : 2880, "type" : "VEC3", "max" : [4.976720809936523, 40.2967414855957, -1.1644246578216553], "min" : [1.2630233764648438, 32.18033218383789, -4.292102813720703], "name" : "POSITION"}, {"bufferView" : 4, "byteOffset" : 12, "componentType" : 5126, "count" : 2880, "type" : "VEC3", "max" : [0.99940425157547, 0.9978027939796448, 0.9984242916107178], "min" : [-0.9999967217445374, -0.9976924061775208, -0.9984242916107178], "name" : "NORMAL"}, {"bufferView" : 4, "byteOffset" : 24, "componentType" : 5126, "count" : 2880, "type" : "VEC2", "max" : [0, 1], "min" : [0, 1], "name" : "TEXCOORD_0"}], "asset" : {"generator" : "Aspose.3D 24.9.1", "version" : "2.0"}, "buffers" : [{"uri" : "data:application/octet-stream;base64,", "byteLength" : 2447612}], "bufferViews" : [{"buffer" : 0, "byteOffset" : 0, "byteLength" : 143976, "target" : 34963}, {"buffer" : 0, "byteOffset" : 143980, "byteLength" : 92160, "byteStride" : 32, "target" : 34962}, {"buffer" : 0, "byteOffset" : 236144, "byteLength" : 904704, "byteStride" : 32, "target" : 34962}, {"buffer" : 0, "byteOffset" : 1140852, "byteLength" : 1214592, "byteStride" : 32, "target" : 34962}, {"buffer" : 0, "byteOffset" : 2355448, "byteLength" : 92160, "byteStride" : 32, "target" : 34962}], "materials" : [{"name" : "Material.001", "pbrMetallicRoughness" : {"baseColorFactor" : [0.800000011920929, 0.800000011920929, 0.800000011920929, 1], "metallicFactor" : 1, "roughnessFactor" : 1}, "emissiveFactor" : [0, 0, 0], "alphaMode" : "OPAQUE", "doubleSided" : false}, {"name" : "Material", "pbrMetallicRoughness" : {"baseColorFactor" : [0.800000011920929, 0.800000011920929, 0.800000011920929, 1], "metallicFactor" : 1, "roughnessFactor" : 1}, "emissiveFactor" : [0, 0, 0], "alphaMode" : "OPAQUE", "doubleSided" : false}, {"name" : "apple inside", "pbrMetallicRoughness" : {"baseColorFactor" : [0.800000011920929, 0.800000011920929, 0.800000011920929, 1], "metallicFactor" : 1, "roughnessFactor" : 1}, "emissiveFactor" : [0, 0, 0], "alphaMode" : "OPAQUE", "doubleSided" : false}], "meshes" : [{"primitives" : [{"attributes" : {"POSITION" : 1, "NORMAL" : 2, "TEXCOORD_0" : 3}, "indices" : 0, "material" : 0, "mode" : 4}], "name" : ""}, {"primitives" : [{"attributes" : {"POSITION" : 5, "NORMAL" : 6, "TEXCOORD_0" : 7}, "indices" : 4, "material" : 1, "mode" : 4}, {"attributes" : {"POSITION" : 9, "NORMAL" : 10, "TEXCOORD_0" : 11}, "indices" : 8, "material" : 2, "mode" : 4}], "name" : ""}, {"primitives" : [{"attributes" : {"POSITION" : 13, "NORMAL" : 14, "TEXCOORD_0" : 15}, "indices" : 12, "material" : 0, "mode" : 4}], "name" : ""}], "nodes" : [{"mesh" : 0, "name" : "polySurface5"}, {"mesh" : 1, "name" : "polySurface4"}, {"mesh" : 2, "name" : "polySurface6"}, {"children" : [0, 1, 2], "name" : "APPLE.004_R"}], "scene" : 0, "scenes" : [{"nodes" : [3]}]}